<svg width="50" height="50" viewBox="0 0 50 50" fill="none" xmlns="http://www.w3.org/2000/svg">
<circle cx="25" cy="25" r="25" fill="#F7EAFD"/>
<path d="M35.5584 30.5742H35.5441C35.2126 30.5742 34.945 30.8426 34.945 31.1733C34.945 31.504 35.2126 31.7724 35.5441 31.7724H35.5584C35.8892 31.7724 36.1575 31.504 36.1575 31.1733C36.1575 30.8426 35.8892 30.5742 35.5584 30.5742Z" fill="#8736AA"/>
<path d="M40.3368 31.1723V30.5189C40.3368 29.0451 39.4158 27.783 38.1194 27.2758C38.526 26.7973 38.7728 26.1774 38.7728 25.4992C38.7728 23.9903 37.553 22.7634 36.0529 22.7634C36.0441 22.7634 36.0361 22.7642 36.0273 22.7642C35.6287 22.1898 35.0728 21.7553 34.4385 21.5077C34.8435 21.03 35.0888 20.4109 35.0888 19.7351C35.0888 18.2262 33.869 16.9993 32.3689 16.9993C32.3601 16.9993 32.3521 17.0001 32.3433 17.0001C31.9447 16.4257 31.3887 15.9912 30.7545 15.7436C31.1595 15.2659 31.4047 14.6468 31.4047 13.971C31.4039 12.4621 30.1842 11.2344 28.684 11.2344C27.1847 11.2344 25.9641 12.4621 25.9641 13.9702C25.9641 14.646 26.2094 15.2643 26.6144 15.7428C25.9793 15.9904 25.4241 16.4249 25.0248 16.9993C25.0168 16.9993 25.0072 16.9985 24.9992 16.9985C24.9904 16.9985 24.9816 16.9993 24.9736 16.9993C24.5742 16.4241 24.0191 15.9896 23.384 15.7428C23.789 15.2651 24.0342 14.646 24.0342 13.9702C24.035 12.4621 22.8153 11.2344 21.316 11.2344C19.8166 11.2344 18.5961 12.4621 18.5961 13.9702C18.5961 14.646 18.8413 15.2643 19.2463 15.7428C18.6112 15.9904 18.0561 16.4249 17.6575 16.9993C17.6487 16.9993 17.6407 16.9985 17.6319 16.9985C16.1326 16.9985 14.912 18.2262 14.912 19.7343C14.912 20.4101 15.1573 21.0292 15.5622 21.5069C14.928 21.7545 14.372 22.189 13.9734 22.7634C13.9647 22.7634 13.9559 22.7626 13.9479 22.7626C12.4485 22.7626 11.228 23.9903 11.228 25.4984C11.228 26.1758 11.4748 26.7965 11.8814 27.275C10.5842 27.783 9.66315 29.0443 9.66315 30.5189V33.4009C9.66315 33.7316 9.93154 34 10.2622 34H39.7377C40.0684 34 40.3368 33.7316 40.3368 33.4009V31.1747C40.3368 31.1747 40.3368 31.1739 40.3368 31.1731C40.3368 31.1723 40.3368 31.1731 40.3368 31.1723ZM36.0537 23.9616C36.8924 23.9616 37.5754 24.6517 37.5754 25.4992C37.5754 26.3476 36.8932 27.0369 36.0537 27.0369C35.215 27.0369 34.532 26.3468 34.532 25.4992C34.532 24.6509 35.2142 23.9616 36.0537 23.9616ZM32.3689 18.1967C33.2076 18.1967 33.8906 18.8868 33.8906 19.7343C33.8906 20.5827 33.2084 21.272 32.3689 21.272C31.5301 21.272 30.8472 20.5819 30.8472 19.7343C30.8472 18.8868 31.5301 18.1967 32.3689 18.1967ZM28.684 12.4326C29.5228 12.4326 30.2057 13.1227 30.2057 13.9702C30.2057 14.8178 29.5236 15.5079 28.684 15.5079C27.8445 15.5079 27.1623 14.8178 27.1623 13.9702C27.1623 13.1227 27.8453 12.4326 28.684 12.4326ZM27.8597 16.7069H29.5084C30.0947 16.7069 30.6475 16.9386 31.062 17.3364C30.2209 17.8021 29.649 18.7031 29.649 19.7351C29.649 20.4109 29.8942 21.03 30.2992 21.5077C29.6641 21.7553 29.109 22.1898 28.7104 22.7642C28.7016 22.7642 28.6928 22.7634 28.6848 22.7634C28.6768 22.7634 28.6681 22.7642 28.6593 22.7642C28.2607 22.1898 27.7047 21.7553 27.0697 21.5077C27.4747 21.03 27.7199 20.4109 27.7199 19.7351C27.7199 18.7023 27.1479 17.8021 26.3068 17.3364C26.7214 16.9386 27.2734 16.7069 27.8597 16.7069ZM30.2057 25.4992C30.2057 26.3476 29.5236 27.0369 28.684 27.0369C27.8445 27.0369 27.1623 26.3468 27.1623 25.4992C27.1623 24.6509 27.8445 23.9616 28.684 23.9616C29.5236 23.9616 30.2057 24.6509 30.2057 25.4992ZM25 18.1967C25.8387 18.1967 26.5217 18.8868 26.5217 19.7343C26.5217 20.5827 25.8387 21.272 25 21.272C24.1613 21.272 23.4783 20.5819 23.4783 19.7343C23.4783 18.8868 24.1613 18.1967 25 18.1967ZM21.316 12.4326C22.1547 12.4326 22.8377 13.1227 22.8377 13.9702C22.8377 14.8178 22.1547 15.5079 21.316 15.5079C20.4772 15.5079 19.7942 14.8178 19.7942 13.9702C19.7942 13.1227 20.4764 12.4326 21.316 12.4326ZM20.4908 16.7069H22.1395C22.7258 16.7069 23.2786 16.9386 23.6932 17.3364C22.852 17.8021 22.2801 18.7023 22.2801 19.7351C22.2801 20.4109 22.5253 21.03 22.9303 21.5077C22.2961 21.7553 21.7401 22.1898 21.3415 22.7642C21.3327 22.7642 21.3239 22.7634 21.316 22.7634C21.3072 22.7634 21.2992 22.7642 21.2904 22.7642C20.8918 22.1898 20.3358 21.7553 19.7016 21.5077C20.1066 21.03 20.3518 20.4109 20.3518 19.7351C20.3518 18.7023 19.7799 17.8021 18.9387 17.3364C19.3525 16.9386 19.9045 16.7069 20.4908 16.7069ZM22.8369 25.4992C22.8369 26.3476 22.1539 27.0369 21.3152 27.0369C20.4764 27.0369 19.7935 26.3468 19.7935 25.4992C19.7935 24.6509 20.4756 23.9616 21.3152 23.9616C22.1547 23.9616 22.8369 24.6509 22.8369 25.4992ZM17.6311 18.1967C18.4698 18.1967 19.1528 18.8868 19.1528 19.7343C19.1528 20.5827 18.4698 21.272 17.6311 21.272C16.7924 21.272 16.1094 20.5819 16.1094 19.7343C16.1094 18.8868 16.7924 18.1967 17.6311 18.1967ZM13.9463 23.9616C14.785 23.9616 15.468 24.6517 15.468 25.4992C15.468 26.3476 14.785 27.0369 13.9463 27.0369C13.1075 27.0369 12.4246 26.3468 12.4246 25.4992C12.4254 24.6509 13.1075 23.9616 13.9463 23.9616ZM17.032 32.8018H10.8613V31.7722H12.7209C13.0516 31.7722 13.32 31.5038 13.32 31.1731C13.32 30.8424 13.0516 30.574 12.7209 30.574H10.8613V30.5181C10.8613 29.2592 11.8854 28.2351 13.1443 28.2351H14.7491C16.008 28.2351 17.032 29.2592 17.032 30.5181V32.8018ZM17.6311 28.5682C17.2373 27.9883 16.6742 27.5346 16.0128 27.2758C16.4193 26.7973 16.6662 26.1774 16.6662 25.4992C16.6662 24.4664 16.0942 23.5662 15.2531 23.1005C15.6677 22.7027 16.2204 22.471 16.806 22.471H18.4547C19.041 22.471 19.593 22.7027 20.0083 23.1005C19.1664 23.5662 18.5953 24.4672 18.5953 25.4992C18.5953 26.1766 18.8421 26.7973 19.2487 27.2758C18.5881 27.5346 18.0241 27.9891 17.6311 28.5682ZM24.4009 32.8018H18.2302V30.5189C18.2302 29.26 19.2543 28.2359 20.5132 28.2359H22.1179C23.3768 28.2359 24.4009 29.26 24.4009 30.5189V32.8018ZM25 28.5682C24.6062 27.9883 24.043 27.5346 23.3816 27.2758C23.7882 26.7973 24.035 26.1774 24.035 25.4992C24.035 24.4664 23.4631 23.5662 22.622 23.1005C23.0366 22.7027 23.5893 22.471 24.1748 22.471H25.8235C26.4099 22.471 26.9618 22.7027 27.3772 23.1005C26.5353 23.5662 25.9641 24.4664 25.9641 25.4992C25.9641 26.1766 26.211 26.7973 26.6175 27.2758C25.9569 27.5346 25.3938 27.9891 25 28.5682ZM31.7698 32.8018H25.5991V30.5189C25.5991 29.26 26.6231 28.2359 27.882 28.2359H29.4868C30.7457 28.2359 31.7698 29.26 31.7698 30.5189V32.8018ZM32.3689 28.5682C31.9751 27.9891 31.4119 27.5346 30.7505 27.2758C31.1571 26.7973 31.4039 26.1774 31.4039 25.4992C31.4039 24.4664 30.832 23.5662 29.9909 23.1005C30.4054 22.7027 30.9574 22.471 31.5437 22.471H33.1924C33.7787 22.471 34.3307 22.7027 34.7461 23.1005C33.9049 23.5662 33.333 24.4672 33.333 25.4992C33.333 26.1766 33.5798 26.7973 33.9864 27.2758C33.3258 27.5346 32.7627 27.9891 32.3689 28.5682ZM39.1386 30.574H37.279C36.9483 30.574 36.68 30.8424 36.68 31.1731C36.68 31.5038 36.9483 31.7722 37.279 31.7722H39.1386V32.8018H32.968V30.5189C32.968 29.26 33.992 28.2359 35.2509 28.2359H36.8557C38.1146 28.2359 39.1386 29.26 39.1386 30.5189V30.574Z" fill="#8736AA"/>
<path d="M14.4559 30.5742H14.4415C14.1108 30.5742 13.8424 30.8426 13.8424 31.1733C13.8424 31.504 14.1108 31.7724 14.4415 31.7724H14.4559C14.7874 31.7724 15.055 31.504 15.055 31.1733C15.055 30.8426 14.7866 30.5742 14.4559 30.5742Z" fill="#8736AA"/>
</svg>
