<svg width="50" height="50" viewBox="0 0 50 50" fill="none" xmlns="http://www.w3.org/2000/svg">
<circle cx="25" cy="25" r="25" fill="#F7EAFD"/>
<path d="M13.4908 34.5075L16.5 36.0117V39.375C16.5 39.72 16.78 40 17.125 40H23.75C24.095 40 24.375 39.72 24.375 39.375V31.2158C24.375 29.3008 22.9383 27.7133 21.0383 27.5225C21.0308 27.52 18.3942 27.1083 17.1717 25.885L15.7683 24.4817C15.295 24.01 14.6675 23.75 14 23.75V18.75C14 17.3717 12.8783 16.25 11.5 16.25C10.1217 16.25 9 17.3717 9 18.75V27.24C9 28.75 9.41917 30.2267 10.2133 31.5117C11.0075 32.7958 12.1408 33.8317 13.4908 34.5075ZM10.25 18.75C10.25 18.0608 10.8108 17.5 11.5 17.5C12.1892 17.5 12.75 18.0608 12.75 18.75V24.085C11.9875 24.5258 11.5 25.3475 11.5 26.25C11.5 26.9175 11.76 27.545 12.2325 28.0175L15.4333 31.2183C15.6775 31.4625 16.0733 31.4625 16.3175 31.2183C16.5617 30.9742 16.5617 30.5783 16.3175 30.3342L13.1167 27.1333C12.88 26.8975 12.75 26.5833 12.75 26.25C12.75 25.7208 13.085 25.2475 13.5833 25.0708C14.0142 24.9183 14.525 25.0083 14.8833 25.3667L16.2867 26.77C17.7358 28.2192 20.9017 28.7642 20.9083 28.7658C22.1717 28.8925 23.1242 29.9458 23.1242 31.2158V38.75H17.75V35.625C17.75 35.3883 17.6167 35.1717 17.4042 35.0658L14.05 33.3892C11.7058 32.2167 10.25 29.8608 10.25 27.24V18.75Z" fill="#8736AA"/>
<path d="M24.375 24.375C24.375 24.72 24.655 25 25 25C25.345 25 25.625 24.72 25.625 24.375V22.5H28.0175C31.5233 22.5 34.375 19.6483 34.375 16.1425V13.125C34.375 12.8725 34.2225 12.6442 33.9892 12.5475C33.7558 12.4508 33.4867 12.5042 33.3075 12.6825C32.62 13.3708 31.705 13.7492 30.7317 13.7492C28.6417 13.7492 26.7833 14.7633 25.6242 16.325V10.625C25.6242 10.28 25.3442 10 24.9992 10C24.6542 10 24.3742 10.28 24.3742 10.625V13.8258C23.2158 12.2642 21.3575 11.25 19.2675 11.25C18.2942 11.25 17.38 10.8708 16.6917 10.1833C16.5133 10.005 16.2442 9.95083 16.01 10.0475C15.7767 10.1442 15.6242 10.3725 15.6242 10.625V13.6425C15.6242 17.1483 18.4758 20 21.9817 20H24.3742V24.375H24.375ZM30.7325 15C31.5842 15 32.4025 14.7842 33.125 14.3775V16.1425C33.125 18.9583 30.8333 21.25 28.0175 21.25H26.875L30.375 18.625C30.6508 18.4183 30.7067 18.0258 30.5 17.75C30.2933 17.4742 29.9008 17.4183 29.625 17.625L25.625 20.625V20.1075C25.625 17.2917 27.9167 15 30.7325 15ZM16.875 13.6425V11.8775C17.5975 12.2842 18.4158 12.5 19.2675 12.5C22.0833 12.5 24.375 14.7917 24.375 17.6075V18.125L20.375 15.125C20.0992 14.9183 19.7067 14.9742 19.5 15.25C19.2933 15.5258 19.3492 15.9183 19.625 16.125L23.125 18.75H21.9825C19.1667 18.75 16.875 16.4583 16.875 13.6425Z" fill="#8736AA"/>
<path d="M38.3125 33C38.3125 33.345 38.0325 33.625 37.6875 33.625C37.3425 33.625 37.0625 33.345 37.0625 33C37.0625 32.655 37.3425 32.375 37.6875 32.375C38.0325 32.375 38.3125 32.655 38.3125 33Z" fill="#8736AA"/>
<path d="M38.5 16.25C37.1217 16.25 36 17.3717 36 18.75V23.75C35.3325 23.75 34.705 24.01 34.2325 24.4825L32.8292 25.8858C31.6325 27.0817 28.9733 27.5208 28.9667 27.5225C27.0617 27.7133 25.625 29.3017 25.625 31.2167V39.3758C25.625 39.7208 25.905 40.0008 26.25 40.0008H32.875C33.22 40.0008 33.5 39.7208 33.5 39.3758V36.0125L35.5458 34.99C35.8542 34.8358 35.98 34.46 35.8258 34.1517C35.6717 33.8433 35.2958 33.7175 34.9875 33.8717L32.5967 35.0667C32.385 35.1725 32.2517 35.3892 32.2517 35.6258V38.75H26.8767V31.2158C26.8767 29.9458 27.8292 28.8925 29.0975 28.765C29.1042 28.7633 32.1867 28.2975 33.7142 26.7692L35.1175 25.3658C35.475 25.0083 35.9875 24.9175 36.4175 25.0708C36.9158 25.2475 37.2508 25.7208 37.2508 26.25C37.2508 26.5833 37.1208 26.8975 36.885 27.1333L33.6842 30.3342C33.44 30.5783 33.44 30.9742 33.6842 31.2183C33.9283 31.4625 34.3242 31.4625 34.5683 31.2183L37.7692 28.0175C38.2417 27.545 38.5017 26.9175 38.5017 26.25C38.5017 25.3475 38.0142 24.5258 37.2517 24.085V18.75C37.2517 18.0608 37.8125 17.5 38.5017 17.5C39.1908 17.5 39.7517 18.0608 39.7517 18.75V27.24C39.7517 28.3833 39.4633 29.5192 38.9167 30.5233C38.7517 30.8267 38.8642 31.2058 39.1675 31.3708C39.4708 31.5358 39.8508 31.4233 40.015 31.12C40.6592 29.9333 41 28.5917 41 27.24V18.75C41 17.3717 39.8783 16.25 38.5 16.25Z" fill="#8736AA"/>
</svg>
