<svg width="50" height="50" viewBox="0 0 50 50" fill="none" xmlns="http://www.w3.org/2000/svg">
<circle cx="25" cy="25" r="25" fill="#F7EAFD"/>
<path d="M22.3671 31.2917C22.6587 31.2917 22.8953 31.0552 22.8953 30.7636C22.8953 30.4719 22.6587 30.2354 22.3671 30.2354C22.0754 30.2354 21.8389 30.4719 21.8389 30.7636C21.8389 31.0552 22.0754 31.2917 22.3671 31.2917Z" fill="#8736AA"/>
<path d="M11.1119 32.5096L17.4508 38.8485C17.6572 39.0549 17.9912 39.0549 18.1976 38.8485L21.6838 35.3623C21.8902 35.1559 21.8902 34.8219 21.6838 34.6155L21.5287 34.461H29.1432C29.8121 34.461 30.4504 34.2101 30.9421 33.7533L37.3503 27.7473C37.9637 27.1778 38.167 26.2728 37.8558 25.4953C37.6308 24.9327 37.1714 24.5025 36.5961 24.3146C36.0203 24.1262 35.3958 24.2024 34.8819 24.5236C34.8787 24.5257 33.4592 25.4572 33.4592 25.4572C33.4497 22.594 31.719 19.5407 29.3369 18.1657C29.4729 18.0095 29.5798 17.8248 29.6481 17.6174C29.9206 16.788 29.4676 15.8904 28.6367 15.6162C28.6107 15.6078 28.5848 15.5998 28.5589 15.5919L29.9185 13.1494C29.9968 13.0091 30.0069 12.8403 29.9455 12.6921C29.8841 12.5434 29.7592 12.4301 29.6041 12.3856C28.6298 12.102 27.6162 11.958 26.5927 11.958C25.5691 11.958 24.5556 12.102 23.5807 12.3851C23.4261 12.4301 23.3007 12.5428 23.2393 12.6916C23.1784 12.8403 23.1885 13.0091 23.2668 13.1494L24.6265 15.5919C24.6 15.6004 24.5735 15.6083 24.5471 15.6168C23.7177 15.8904 23.2647 16.788 23.5373 17.6179C23.6055 17.8243 23.713 18.0085 23.8495 18.1651C21.4319 19.5603 19.7256 22.6448 19.7256 25.4805C19.7256 25.5578 19.7277 25.634 19.7298 25.7097C18.7835 25.968 17.9044 26.4385 17.1645 27.0858L15.5592 28.4904L15.3449 28.2761C15.1385 28.0696 14.8045 28.0696 14.5981 28.2761L11.1119 31.7628C10.906 31.9692 10.906 32.3032 11.1119 32.5096ZM24.5238 13.2356C25.2007 13.089 25.894 13.0149 26.5927 13.0149C27.2913 13.0149 27.9846 13.089 28.6615 13.2356L27.4845 15.35C26.8912 15.2675 26.2936 15.2675 25.7009 15.35L24.5238 13.2356ZM24.8773 16.6202C25.9613 16.2656 27.1426 16.2386 28.3069 16.6197C28.5843 16.7113 28.7351 17.0108 28.6446 17.2871C28.5763 17.4951 28.3905 17.6369 28.1751 17.6491C27.1336 17.3178 26.0518 17.3173 25.0102 17.648C24.7932 17.6343 24.609 17.4924 24.5413 17.2871C24.4502 17.0108 24.6016 16.7113 24.8773 16.6202ZM25.1695 18.7097C26.0851 18.38 27.0346 18.3721 27.9529 18.6875C30.407 19.5317 32.4039 22.5786 32.4039 25.481C32.4039 25.7266 32.3886 25.9611 32.3579 26.1807L29.819 27.8463C29.4263 27.3594 28.8304 27.0656 28.1783 27.0656H27.1209V26.4464C27.7359 26.2284 28.1773 25.6414 28.1773 24.9529C28.1773 24.079 27.4665 23.3683 26.5927 23.3683C26.3016 23.3683 26.0645 23.1311 26.0645 22.8401C26.0645 22.5484 26.3016 22.3119 26.5927 22.3119C26.78 22.3119 26.9774 22.4071 27.1637 22.5876C27.3733 22.7903 27.7078 22.785 27.9105 22.5754C28.1132 22.3658 28.1079 22.0314 27.8983 21.8286C27.6305 21.5693 27.3622 21.4222 27.1209 21.3423V20.7267C27.1209 20.4346 26.8843 20.1985 26.5927 20.1985C26.3005 20.1985 26.0645 20.4346 26.0645 20.7267V21.346C25.4495 21.564 25.0081 22.151 25.0081 22.8401C25.0081 23.7139 25.7189 24.4247 26.5927 24.4247C26.8838 24.4247 27.1209 24.6612 27.1209 24.9529C27.1209 25.2439 26.8838 25.481 26.5927 25.481C26.3667 25.481 26.1232 25.3392 25.9067 25.0815C25.7189 24.8581 25.386 24.8295 25.1626 25.0174C24.9393 25.2053 24.9102 25.5382 25.0986 25.7616C25.3807 26.0976 25.713 26.3316 26.065 26.4496V27.0662H25.8893C25.6299 27.0662 25.513 26.8968 25.3304 26.7788C24.2142 25.9426 22.8318 25.4816 21.4377 25.4816C21.2196 25.4816 21.0011 25.4927 20.7835 25.5149C20.7835 25.5038 20.783 25.4927 20.783 25.4816C20.7825 22.6194 22.7503 19.582 25.1695 18.7097ZM17.8605 27.8807C18.8528 27.0117 20.1283 26.5369 21.4366 26.5369C22.6042 26.5369 23.7617 26.9227 24.6953 27.6224C24.8302 27.7013 25.2055 28.1215 25.8882 28.1215H28.1773C28.7785 28.1215 29.2337 28.61 29.2337 29.1779C29.2337 29.7601 28.7594 30.2343 28.1773 30.2343H24.4799C24.1882 30.2343 23.9517 30.4704 23.9517 30.7625C23.9517 31.0541 24.1882 31.2907 24.4799 31.2907H28.1778C29.3427 31.2907 30.2906 30.3428 30.2906 29.1779C30.2906 29.0567 30.28 28.9371 30.2594 28.8196L35.4466 25.416C35.6932 25.2635 35.9928 25.2281 36.2685 25.318C36.5459 25.4085 36.7671 25.616 36.8756 25.8875C37.028 26.2681 36.9322 26.6941 36.6305 26.9741L30.2218 32.9806C29.9275 33.2537 29.5449 33.404 29.1432 33.404H20.4729L16.3087 29.2393L17.8605 27.8807ZM14.9718 29.397L20.5639 34.9886L17.8245 37.7281L12.2323 32.1365L14.9718 29.397Z" fill="#8736AA"/>
</svg>
