<svg width="50" height="50" viewBox="0 0 50 50" fill="none" xmlns="http://www.w3.org/2000/svg">
<circle cx="25" cy="25" r="25" fill="#F7EAFD"/>
<path d="M13.7184 18.959L10.6498 20.3359C10.2549 20.5135 10 20.9072 10 21.3402C10 21.7727 10.2549 22.167 10.6498 22.3445L12.9309 23.3682L12.9496 23.377L18.1885 21.025L13.7184 18.959Z" fill="#8736AA"/>
<path d="M20.3031 22.002L15.0953 24.3393L17.8381 25.5709L22.9316 23.2166L20.3031 22.002Z" fill="#8736AA"/>
<path d="M25.027 24.1855L19.9639 26.5252L24.5494 28.5836C24.693 28.648 24.8465 28.6803 25.0006 28.6803C25.1541 28.6803 25.3076 28.648 25.4506 28.5836L30.0631 26.5129L25.027 24.1855Z" fill="#8736AA"/>
<path d="M22.8789 18.9191L20.3143 20.0705L15.8441 18.0045L18.3455 16.8818L22.8789 18.9191Z" fill="#8736AA"/>
<path d="M27.6215 21.0495L25.0275 22.2483L22.4289 21.0478L25.0234 19.8823H25.024L27.6215 21.0495Z" fill="#8736AA"/>
<path d="M29.7461 22.0044L27.1223 23.2167L32.1889 25.5581L34.924 24.3306L29.7461 22.0044Z" fill="#8736AA"/>
<path d="M29.5357 15.9301L25.0246 17.9557L20.4912 15.9184L24.55 14.0967C24.8365 13.9678 25.1646 13.9678 25.4512 14.0967L29.5357 15.9301Z" fill="#8736AA"/>
<path d="M34.184 18.0168L29.7356 20.0729L27.1691 18.9197L31.682 16.8936L34.184 18.0168Z" fill="#8736AA"/>
<path d="M40 21.3401C40 21.7726 39.7451 22.1669 39.3508 22.3438L37.0691 23.3681H37.0686L31.8602 21.0272L36.3092 18.9712L39.3502 20.3358C39.7451 20.5134 40 20.9071 40 21.3401Z" fill="#8736AA"/>
<path d="M39.3502 24.3923L39.0332 24.2499L25.4752 30.3354C25.3322 30.3999 25.1787 30.4321 25.0252 30.4321C24.8717 30.4321 24.7176 30.3999 24.5746 30.3354L10.9926 24.2388L10.6498 24.3929C10.2555 24.5698 10 24.9636 10 25.3966C10 25.829 10.2549 26.2233 10.6498 26.4003L24.55 32.6399C24.693 32.7044 24.8465 32.7366 25 32.7366C25.1535 32.7366 25.3076 32.7044 25.4506 32.6399L39.3508 26.4003C39.7451 26.2233 40 25.829 40 25.3966C40 24.9636 39.7451 24.5698 39.3502 24.3923Z" fill="#8736AA"/>
<path d="M39.3502 28.5078L38.9969 28.349L25.4752 34.4187C25.3322 34.4832 25.1787 34.5154 25.0252 34.5154C24.8717 34.5154 24.7176 34.4832 24.5746 34.4187L11.0283 28.3379L10.6498 28.5078C10.2555 28.6848 10 29.0791 10 29.5115C10 29.9445 10.2549 30.3383 10.6498 30.5158L24.5494 36.7555C24.6924 36.8199 24.8465 36.8521 25 36.8521C25.1535 36.8521 25.307 36.8199 25.45 36.7561L39.3502 30.5164C39.7445 30.3395 40 29.9451 40 29.5127C40 29.0791 39.7451 28.6848 39.3502 28.5078Z" fill="#8736AA"/>
</svg>
